<?xml version="1.0" standalone="no"?>
<!DOCTYPE svg PUBLIC "-//W3C//DTD SVG 20010904//EN"
 "http://www.w3.org/TR/2001/REC-SVG-20010904/DTD/svg10.dtd">
<svg version="1.0" xmlns="http://www.w3.org/2000/svg"
 width="252.000000pt" height="252.000000pt" viewBox="0 0 252.000000 252.000000"
 preserveAspectRatio="xMidYMid meet">
<metadata>
Created by potrace 1.14, written by Peter Selinger 2001-2017
</metadata>
<g transform="translate(0.000000,252.000000) scale(0.100000,-0.100000)"
fill="#000000" stroke="none">
<path d="M0 1260 l0 -1260 1260 0 1260 0 0 1260 0 1260 -1260 0 -1260 0 0
-1260z m1027 979 c67 -32 110 -76 144 -149 18 -37 23 -69 27 -177 2 -73 7
-133 9 -133 8 0 69 55 282 252 111 104 219 197 241 208 127 65 271 36 368 -76
53 -60 75 -126 70 -213 -6 -121 -27 -149 -287 -389 -126 -117 -234 -218 -240
-226 -10 -11 36 -70 235 -301 155 -182 255 -306 270 -339 29 -62 32 -158 8
-229 -20 -60 -88 -136 -150 -166 -104 -52 -250 -34 -335 42 -20 17 -133 145
-250 282 l-214 250 -5 -190 -6 -190 -34 -64 c-60 -111 -163 -168 -290 -159
-112 8 -199 66 -252 168 -22 42 -23 58 -26 250 l-3 206 233 215 c128 119 386
357 572 530 425 393 443 409 466 409 55 0 98 -51 85 -103 -4 -16 -116 -127
-316 -312 -170 -158 -309 -291 -309 -296 0 -5 42 -58 94 -117 341 -389 527
-610 533 -630 13 -52 -43 -109 -95 -97 -22 4 -99 88 -338 365 -170 197 -315
359 -322 359 -12 1 -159 -131 -374 -337 l-68 -64 0 -142 c0 -122 3 -145 20
-173 55 -90 186 -95 239 -9 16 25 20 52 21 146 1 63 1 119 1 124 -1 6 -15 -3
-31 -19 -29 -28 -30 -32 -30 -115 0 -59 -5 -92 -15 -107 -31 -44 -111 -37
-134 13 -6 14 -11 76 -11 142 l0 117 142 130 c201 185 230 210 239 210 4 0
137 -151 294 -335 158 -184 301 -343 318 -353 113 -63 249 66 194 184 -7 15
-140 176 -297 358 -157 183 -286 338 -288 344 -1 7 77 87 175 177 358 333 388
362 406 393 61 111 -57 243 -177 197 -23 -8 -255 -220 -953 -867 -144 -134
-264 -243 -268 -243 -3 0 -4 240 -3 533 l3 532 23 45 c45 86 111 139 203 164
70 19 128 12 206 -25z"/>
<path d="M822 2090 c-18 -11 -41 -34 -52 -52 -19 -31 -20 -51 -20 -355 0 -178
4 -323 8 -323 5 0 18 10 30 23 22 23 22 29 22 310 0 303 3 326 47 346 37 17
62 13 88 -14 25 -24 25 -24 25 -240 0 -227 3 -241 44 -196 16 17 18 43 17 222
-1 174 -3 206 -18 232 -37 62 -128 85 -191 47z"/>
</g>
</svg>
